<svg width="254" height="80" xmlns:xlink="http://www.w3.org/1999/xlink" xmlns="http://www.w3.org/2000/svg"><defs><clipPath id="b"><use xlink:href="#a" clip-rule="evenodd"/></clipPath><path id="a" d="M0 0h254v80H0z"/></defs><g clip-path="url(#b)"><use xlink:href="#a" fill="#FFDADA" fill-opacity="0"/><path d="M12.493 22.68h-.005a2.1 2.1 0 00-1.489.617 2.117 2.117 0 00-.625 1.51v31.872c0 1.169.954 2.122 2.128 2.125 4.947.012 13.237 1.043 18.955 7.027V32.475c0-.396-.101-.768-.292-1.076-4.694-7.559-13.713-8.707-18.672-8.719z" fill="#EFEFEF"/><path d="M52.644 56.68V24.805a2.12 2.12 0 00-.625-1.509 2.095 2.095 0 00-1.49-.617h-.005c-4.958.012-13.977 1.16-18.671 8.72-.191.307-.292.68-.292 1.075V65.83c5.718-5.984 14.008-7.015 18.955-7.027a2.133 2.133 0 002.128-2.125zm13.46-2.18V35.744L73.376 54.5h3.6l7.236-18.756V54.5h4.14V29.48h-4.968l-8.136 19.98-8.28-19.98H62V54.5h4.104z" fill="#FFF"/><path d="M105.848 53.42q-1.908 1.332-4.608 1.332-2.592 0-4.626-1.224c-1.356-.816-2.418-1.992-3.186-3.528q-1.152-2.304-1.152-5.436 0-3.096 1.152-5.4 1.152-2.304 3.186-3.528 2.034-1.224 4.626-1.224 2.7 0 4.608 1.332 1.908 1.332 2.7 3.528v-4.608h4.104V54.5h-4.104v-4.608q-.792 2.196-2.7 3.528zm-8.273-4.043q1.385 1.739 3.697 1.739 1.461 0 2.618-.807 1.156-.807 1.826-2.277.67-1.47.67-3.443 0-1.937-.67-3.425-.67-1.489-1.826-2.296-1.157-.807-2.618-.807-2.312 0-3.697 1.74-1.385 1.74-1.385 4.788t1.385 4.788z" fill="#FFF" fill-rule="evenodd"/><path d="M121.688 54.5v-8.82l7.128 8.82h5.076l-8.856-9.972 8.64-9.864h-4.932l-7.056 8.46V27.86h-4.104V54.5h4.104zm24.84 0v-3.564h-1.98c-1.056 0-1.794-.216-2.214-.648-.42-.432-.63-1.212-.63-2.34v-9.792h4.788v-3.492h-4.788v-4.932h-4.14v4.932h-2.844v3.492h2.844v9.72c0 2.376.546 4.074 1.638 5.094 1.092 1.02 2.694 1.53 4.806 1.53h2.52z" fill="#FFF"/><path d="M162.944 53.42q-1.908 1.332-4.608 1.332-2.592 0-4.626-1.224c-1.356-.816-2.418-1.992-3.186-3.528q-1.152-2.304-1.152-5.436 0-3.096 1.152-5.4 1.152-2.304 3.186-3.528 2.034-1.224 4.626-1.224 2.7 0 4.608 1.332 1.908 1.332 2.7 3.528v-4.608h4.104V54.5h-4.104v-4.608q-.792 2.196-2.7 3.528zm-8.283-4.05q1.416 1.746 3.782 1.746 1.494 0 2.677-.81c.788-.54 1.41-1.302 1.867-2.286q.685-1.476.685-3.456 0-1.944-.685-3.438-.684-1.494-1.867-2.304-1.183-.81-2.677-.81-2.366 0-3.782 1.746t-1.416 4.806q0 3.06 1.416 4.806zm36.021 4.158q-2.034 1.224-4.626 1.224-2.7 0-4.608-1.332-1.908-1.332-2.664-3.528V54.5h-4.104V27.86h4.104v11.412q.756-2.196 2.664-3.528 1.908-1.332 4.608-1.332 2.592 0 4.626 1.224 2.034 1.224 3.186 3.528 1.152 2.304 1.152 5.4 0 3.132-1.152 5.436t-3.186 3.528zm-7.398-3.222a4.29 4.29 0 002.56.81q2.262 0 3.631-1.746c.913-1.164 1.369-2.766 1.369-4.806q0-3.024-1.369-4.788-1.37-1.764-3.631-1.764-1.429 0-2.56.81-1.13.81-1.785 2.304-.655 1.494-.655 3.438 0 1.98.655 3.456c.436.984 1.032 1.746 1.785 2.286z" fill="#FFF" fill-rule="evenodd"/><path d="M211.845 54.788c1.656 0 3.467-.137 4.46-.467.991-.33 1.788-.774 2.524-1.456V54.5h4.14V34.664h-4.14v10.512c0 2.016-.492 3.552-1.476 4.608-.984 1.056-2.292 1.584-3.924 1.584-1.584 0-2.832-.486-3.744-1.458-.912-.972-1.368-2.358-1.368-4.158V34.664h-4.104v11.52c0 2.76.696 4.884 2.088 6.372 1.392 1.488 3.24 2.232 5.544 2.232zm29.196-.288v-3.456h-10.188l9.828-13.104v-3.276H226.57v3.456h9.396l-9.648 13.104V54.5h14.724zm-42.169 0a1.856 1.856 0 100-3.712 1.856 1.856 0 000 3.712z" fill="#FFF" fill-opacity=".558"/></g></svg>